<?xml version="1.0" encoding="utf-8"?>
<!-- Generator: Adobe Illustrator 19.0.0, SVG Export Plug-In . SVG Version: 6.00 Build 0)  -->
<svg version="1.1" id="Capa_1" xmlns="http://www.w3.org/2000/svg" xmlns:xlink="http://www.w3.org/1999/xlink" x="0px" y="0px"
	 viewBox="0 0 1200 100" style="enable-background:new 0 0 1200 100;" xml:space="preserve">
<style type="text/css">
	.st0{clip-path:url(#SVGID_1_);fill:#ADD3F0;}
	.st1{clip-path:url(#SVGID_1_);fill:#D2E6F7;}
	.st2{clip-path:url(#SVGID_1_);fill:#C0DDF4;}
</style>
<g id="XMLID_2_">
	<defs>
		<rect id="SVGID_3_" y="0.2" width="1200" height="100.1"/>
	</defs>
	<clipPath id="SVGID_1_">
		<use xlink:href="#SVGID_3_"  style="overflow:visible;"/>
	</clipPath>
	<path id="XMLID_9_" class="st0" d="M1199.7,7.7H929.1c-2.1,0-3.8-1.7-3.8-3.8S927,0,929.1,0h270.6c2.1,0,3.9,1.7,3.9,3.8
		S1201.8,7.7,1199.7,7.7"/>
	<path id="XMLID_8_" class="st1" d="M730.1,100.4H459.6c-2.1,0-3.8-1.7-3.8-3.8c0-2.1,1.7-3.8,3.8-3.8h270.6c2.1,0,3.8,1.7,3.8,3.8
		C734,98.7,732.3,100.4,730.1,100.4"/>
	<path id="XMLID_7_" class="st0" d="M1203.6,27.3c0-2.1-1.7-3.8-3.9-3.8h-180.4H640H459.6c-2.1,0-3.8,1.7-3.8,3.8
		c0,2.1,1.7,3.8,3.8,3.8H640h379.3h180.4C1201.8,31.1,1203.6,29.4,1203.6,27.3"/>
	<path id="XMLID_6_" class="st0" d="M313.4,31.1h-559.7c-2.1,0-3.8-1.7-3.8-3.8s1.7-3.8,3.8-3.8h559.7c2.1,0,3.8,1.7,3.8,3.8
		S315.6,31.1,313.4,31.1"/>
	<path id="XMLID_5_" class="st2" d="M1077.6,77.3H517.9c-2.1,0-3.8-1.7-3.8-3.8s1.7-3.8,3.8-3.8h559.7c2.1,0,3.8,1.7,3.8,3.8
		S1079.7,77.3,1077.6,77.3"/>
	<path id="XMLID_4_" class="st2" d="M530.4,54.2H-29.3c-2.1,0-3.8-1.7-3.8-3.8s1.7-3.8,3.8-3.8h559.7c2.1,0,3.8,1.7,3.8,3.8
		S532.6,54.2,530.4,54.2"/>
	<path id="XMLID_3_" class="st2" d="M1210.4,54.2H650.7c-2.1,0-3.8-1.7-3.8-3.8s1.7-3.8,3.8-3.8h559.7c2.1,0,3.8,1.7,3.8,3.8
		S1212.5,54.2,1210.4,54.2"/>
</g>
</svg>
