<?xml version="1.0" encoding="utf-8"?>
<!-- Generator: Adobe Illustrator 19.0.0, SVG Export Plug-In . SVG Version: 6.00 Build 0)  -->
<svg version="1.1" id="Capa_1" xmlns="http://www.w3.org/2000/svg" xmlns:xlink="http://www.w3.org/1999/xlink" x="0px" y="0px"
	 viewBox="0 0 1200 100" style="enable-background:new 0 0 1200 100;" xml:space="preserve">
<style type="text/css">
	.st0{clip-path:url(#SVGID_1_);fill:#ADD3F0;}
	.st1{clip-path:url(#SVGID_1_);fill:#D2E6F7;}
	.st2{clip-path:url(#SVGID_1_);fill:#C0DDF4;}
</style>
<g id="XMLID_2_">
	<defs>
		<rect id="SVGID_3_" x="1.4" y="-0.2" width="1197.6" height="99.9"/>
	</defs>
	<clipPath id="SVGID_1_">
		<use xlink:href="#SVGID_3_"  style="overflow:visible;"/>
	</clipPath>
	<path id="XMLID_9_" class="st0" d="M1.7,8.4h270c2.1,0,3.8-1.7,3.8-3.8s-1.7-3.8-3.8-3.8H1.7c-2.1,0-3.8,1.7-3.8,3.8
		S-0.4,8.4,1.7,8.4"/>
	<path id="XMLID_8_" class="st1" d="M470.3,99.7h270c2.1,0,3.8-1.7,3.8-3.8s-1.7-3.8-3.8-3.8h-270c-2.1,0-3.8,1.7-3.8,3.8
		S468.2,99.7,470.3,99.7"/>
	<path id="XMLID_7_" class="st0" d="M-2.2,26.8c0-2.1,1.7-3.8,3.8-3.8h180.1h378.5h180.1c2.1,0,3.8,1.7,3.8,3.8
		c0,2.1-1.7,3.8-3.8,3.8H560.3H181.7H1.7C-0.4,30.6-2.2,28.9-2.2,26.8"/>
	<path id="XMLID_6_" class="st0" d="M886.2,30.6h558.6c2.1,0,3.8-1.7,3.8-3.8s-1.7-3.8-3.8-3.8H886.2c-2.1,0-3.8,1.7-3.8,3.8
		S884.1,30.6,886.2,30.6"/>
	<path id="XMLID_5_" class="st2" d="M123.6,76.7h558.6c2.1,0,3.8-1.7,3.8-3.8c0-2.1-1.7-3.8-3.8-3.8H123.6c-2.1,0-3.8,1.7-3.8,3.8
		C119.7,74.9,121.5,76.7,123.6,76.7"/>
	<path id="XMLID_4_" class="st2" d="M669.6,53.6h558.6c2.1,0,3.8-1.7,3.8-3.8s-1.7-3.8-3.8-3.8H669.6c-2.1,0-3.8,1.7-3.8,3.8
		S667.5,53.6,669.6,53.6"/>
	<path id="XMLID_3_" class="st2" d="M-9,53.6h558.6c2.1,0,3.8-1.7,3.8-3.8s-1.7-3.8-3.8-3.8H-9c-2.1,0-3.8,1.7-3.8,3.8
		S-11.1,53.6-9,53.6"/>
</g>
</svg>
