<?xml version="1.0" encoding="utf-8"?>
<!-- Generator: Adobe Illustrator 19.0.0, SVG Export Plug-In . SVG Version: 6.00 Build 0)  -->
<svg version="1.1" id="Capa_1" xmlns="http://www.w3.org/2000/svg" xmlns:xlink="http://www.w3.org/1999/xlink" x="0px" y="0px"
	 viewBox="0 0 1200 100" style="enable-background:new 0 0 1200 100;" xml:space="preserve">
<style type="text/css">
	.st0{clip-path:url(#SVGID_1_);fill:#D2E6F7;}
	.st1{clip-path:url(#SVGID_1_);fill:#EED346;}
	.st2{clip-path:url(#SVGID_1_);fill:#D58449;}
	.st3{clip-path:url(#SVGID_1_);fill:#B6B698;}
	.st4{clip-path:url(#SVGID_1_);fill:#CAC8A7;}
	.st5{clip-path:url(#SVGID_1_);fill:#7AA4C3;}
	.st6{clip-path:url(#SVGID_1_);fill:#3581AA;}
	.st7{clip-path:url(#SVGID_1_);fill:#ACCB5F;}
	.st8{clip-path:url(#SVGID_1_);fill:#3C803F;}
	.st9{clip-path:url(#SVGID_1_);fill:#7BB655;}
</style>
<g id="XMLID_2_">
	<defs>
		<rect id="SVGID_3_" x="1.2" y="-0.7" width="1198.6" height="100"/>
	</defs>
	<clipPath id="SVGID_1_">
		<use xlink:href="#SVGID_3_"  style="overflow:visible;"/>
	</clipPath>
	<path id="XMLID_18_" class="st0" d="M34.9,8h236.9c2.1,0,3.8-1.7,3.8-3.8c0-2.1-1.7-3.8-3.8-3.8H34.9c-2.1,0-3.8,1.7-3.8,3.8
		C31.1,6.2,32.8,8,34.9,8"/>
	<path id="XMLID_17_" class="st1" d="M153.3,76.2h334.8c2.1,0,3.8-1.7,3.8-3.8c0-2.1-1.7-3.8-3.8-3.8H153.3c-2.1,0-3.8,1.7-3.8,3.8
		C149.5,74.5,151.2,76.2,153.3,76.2"/>
	<path id="XMLID_16_" class="st2" d="M-78.2,76.2h205.7c2.1,0,3.8-1.7,3.8-3.8c0-2.1-1.7-3.8-3.8-3.8H-78.2c-2.1,0-3.8,1.7-3.8,3.8
		C-82,74.5-80.3,76.2-78.2,76.2"/>
	<path id="XMLID_15_" class="st0" d="M314.5,8h46.1c2.1,0,3.8-1.7,3.8-3.8c0-2.1-1.7-3.8-3.8-3.8h-46.1c-2.1,0-3.8,1.7-3.8,3.8
		C310.6,6.2,312.4,8,314.5,8"/>
	<path id="XMLID_14_" class="st3" d="M770.5,99.3h46.1c2.1,0,3.8-1.7,3.8-3.8c0-2.1-1.7-3.8-3.8-3.8h-46.1c-2.1,0-3.8,1.7-3.8,3.8
		C766.6,97.6,768.3,99.3,770.5,99.3"/>
	<path id="XMLID_13_" class="st0" d="M392.4,8h136c2.1,0,3.8-1.7,3.8-3.8c0-2.1-1.7-3.8-3.8-3.8h-136c-2.1,0-3.8,1.7-3.8,3.8
		C388.6,6.2,390.3,8,392.4,8"/>
	<path id="XMLID_12_" class="st4" d="M1013.1,99.3h216.7c2.1,0,3.8-1.7,3.8-3.8s-1.7-3.8-3.8-3.8h-216.7c-2.1,0-3.8,1.7-3.8,3.8
		S1010.9,99.3,1013.1,99.3"/>
	<path id="XMLID_11_" class="st4" d="M846.8,99.3h136c2.1,0,3.8-1.7,3.8-3.8s-1.7-3.8-3.8-3.8h-136c-2.1,0-3.8,1.7-3.8,3.8
		S844.7,99.3,846.8,99.3"/>
	<path id="XMLID_10_" class="st4" d="M470.5,99.3h270.3c2.1,0,3.8-1.7,3.8-3.8s-1.7-3.8-3.8-3.8H470.5c-2.1,0-3.8,1.7-3.8,3.8
		S468.4,99.3,470.5,99.3"/>
	<path id="XMLID_9_" class="st5" d="M115,26.3c0-2.1,1.7-3.8,3.8-3.8h62.9h378.9h180.2c2.1,0,3.8,1.7,3.8,3.8c0,2.1-1.7,3.8-3.8,3.8
		H560.6H181.7h-62.9C116.7,30.1,115,28.4,115,26.3"/>
	<path id="XMLID_8_" class="st6" d="M886.7,30.1h559.1c2.1,0,3.8-1.7,3.8-3.8c0-2.1-1.7-3.8-3.8-3.8H886.7c-2.1,0-3.8,1.7-3.8,3.8
		C882.9,28.4,884.6,30.1,886.7,30.1"/>
	<path id="XMLID_7_" class="st7" d="M514,76.2h559.1c2.1,0,3.8-1.7,3.8-3.8c0-2.1-1.7-3.8-3.8-3.8H514c-2.1,0-3.8,1.7-3.8,3.8
		C510.1,74.5,511.9,76.2,514,76.2"/>
	<path id="XMLID_6_" class="st7" d="M-117.1,99.3H442c2.1,0,3.8-1.7,3.8-3.8s-1.7-3.8-3.8-3.8h-559.1c-2.1,0-3.8,1.7-3.8,3.8
		S-119.2,99.3-117.1,99.3"/>
	<path id="XMLID_5_" class="st8" d="M584.2,53.2h559.1c2.1,0,3.8-1.7,3.8-3.8s-1.7-3.8-3.8-3.8H584.2c-2.1,0-3.8,1.7-3.8,3.8
		S582.1,53.2,584.2,53.2"/>
	<path id="XMLID_4_" class="st9" d="M-9.2,53.2h559.1c2.1,0,3.8-1.7,3.8-3.8s-1.7-3.8-3.8-3.8H-9.2c-2.1,0-3.8,1.7-3.8,3.8
		S-11.3,53.2-9.2,53.2"/>
	<path id="XMLID_3_" class="st9" d="M1098.9,76.2h559.1c2.1,0,3.8-1.7,3.8-3.8c0-2.1-1.7-3.8-3.8-3.8h-559.1c-2.1,0-3.8,1.7-3.8,3.8
		C1095,74.5,1096.8,76.2,1098.9,76.2"/>
</g>
</svg>
