<?xml version="1.0" encoding="utf-8"?>
<!-- Generator: Adobe Illustrator 19.0.0, SVG Export Plug-In . SVG Version: 6.00 Build 0)  -->
<svg version="1.1" id="Capa_1" xmlns="http://www.w3.org/2000/svg" xmlns:xlink="http://www.w3.org/1999/xlink" x="0px" y="0px"
	 viewBox="0 0 1200 12" style="enable-background:new 0 0 1200 12;" xml:space="preserve">
<style type="text/css">
	.st0{clip-path:url(#XMLID_4_);fill:#D58449;}
	.st1{clip-path:url(#XMLID_4_);fill:#7BB655;}
	.st2{fill:#E1AF46;}
	.st3{fill:#EED346;}
</style>
<g id="XMLID_12_">
	<defs>
		<rect id="XMLID_13_" x="4.2" y="-44.7" width="1198.6" height="100"/>
	</defs>
	<clipPath id="XMLID_4_">
		<use xlink:href="#XMLID_13_"  style="overflow:visible;"/>
	</clipPath>
	<path id="XMLID_27_" class="st0" d="M-248.2,32.2h205.7c2.1,0,3.8-1.7,3.8-3.8c0-2.1-1.7-3.8-3.8-3.8h-205.7
		c-2.1,0-3.8,1.7-3.8,3.8C-252,30.5-250.3,32.2-248.2,32.2"/>
	<path id="XMLID_15_" class="st1" d="M818.1,10h559.1c2.1,0,3.8-1.7,3.8-3.8s-1.7-3.8-3.8-3.8H818.1c-2.1,0-3.8,1.7-3.8,3.8
		S816,10,818.1,10"/>
</g>
<path id="XMLID_3_" class="st2" d="M738.5,9.9h46.1c2.1,0,3.8-1.7,3.8-3.7c0-2.1-1.7-3.7-3.8-3.7h-46.1c-2.1,0-3.8,1.7-3.8,3.7
	C734.6,8.3,736.3,9.9,738.5,9.9"/>
<path id="XMLID_1_" class="st3" d="M568.7,9.4h136c2.1,0,3.8-1.5,3.8-3.3c0-1.8-1.7-3.3-3.8-3.3h-136c-2.1,0-3.8,1.5-3.8,3.3
	C564.8,7.9,566.5,9.4,568.7,9.4"/>
</svg>
