<?xml version="1.0" encoding="utf-8"?>
<!-- Generator: Adobe Illustrator 19.0.0, SVG Export Plug-In . SVG Version: 6.00 Build 0)  -->
<svg version="1.1" id="Capa_1" xmlns="http://www.w3.org/2000/svg" xmlns:xlink="http://www.w3.org/1999/xlink" x="0px" y="0px"
	 viewBox="0 0 1200 35" style="enable-background:new 0 0 1200 35;" xml:space="preserve">
<style type="text/css">
	.st0{fill:#ACCB5F;}
	.st1{fill:#B6B698;}
	.st2{fill:#D2E6F7;}
	.st3{fill:#3581AA;}
</style>
<path id="XMLID_28_" class="st0" d="M-126.2,9.7h334.8c2.1,0,3.8-1.7,3.8-3.8c0-2.1-1.7-3.8-3.8-3.8h-334.8c-2.1,0-3.8,1.7-3.8,3.8
	C-130,8-128.3,9.7-126.2,9.7"/>
<path id="XMLID_25_" class="st1" d="M243.5,9.7h46.1c2.1,0,3.8-1.7,3.8-3.8c0-2.1-1.7-3.8-3.8-3.8h-46.1c-2.1,0-3.8,1.7-3.8,3.8
	C239.6,8,241.3,9.7,243.5,9.7"/>
<path id="XMLID_22_" class="st2" d="M324.3,9.7h136c2.1,0,3.8-1.7,3.8-3.8s-1.7-3.8-3.8-3.8h-136c-2.1,0-3.8,1.7-3.8,3.8
	S322.2,9.7,324.3,9.7"/>
<path id="XMLID_19_" class="st3" d="M46.2,32.7h559.1c2.1,0,3.8-1.7,3.8-3.8c0-2.1-1.7-3.8-3.8-3.8H46.2c-2.1,0-3.8,1.7-3.8,3.8
	C42.4,31,44.1,32.7,46.2,32.7"/>
</svg>
