<?xml version="1.0" encoding="utf-8"?>
<!-- Generator: Adobe Illustrator 19.0.0, SVG Export Plug-In . SVG Version: 6.00 Build 0)  -->
<svg version="1.1" id="Capa_1" xmlns="http://www.w3.org/2000/svg" xmlns:xlink="http://www.w3.org/1999/xlink" x="0px" y="0px"
	 viewBox="0 0 1200 80" style="enable-background:new 0 0 1200 80;" xml:space="preserve">
<style type="text/css">
	.st0{clip-path:url(#SVGID_1_);fill:#D2E6F7;}
	.st1{clip-path:url(#SVGID_1_);fill:#C0DDF4;}
</style>
<g id="XMLID_2_">
	<defs>
		<rect id="SVGID_3_" y="0.3" width="1200" height="79.1"/>
	</defs>
	<clipPath id="SVGID_1_">
		<use xlink:href="#SVGID_3_"  style="overflow:visible;"/>
	</clipPath>
	<path id="XMLID_7_" class="st0" d="M939,51.8H722.5c-1.7,0-3.1-1.4-3.1-3.1c0-1.7,1.4-3.1,3.1-3.1H939c1.7,0,3.1,1.4,3.1,3.1
		C942,50.4,940.7,51.8,939,51.8"/>
	<path id="XMLID_6_" class="st0" d="M694.5,51.8H663c-1.7,0-3.1-1.4-3.1-3.1c0-1.7,1.4-3.1,3.1-3.1h31.5c1.7,0,3.1,1.4,3.1,3.1
		C697.6,50.4,696.2,51.8,694.5,51.8"/>
	<path id="XMLID_5_" class="st1" d="M1453.7,33.4H1006c-1.7,0-3.1-1.4-3.1-3.1c0-1.7,1.4-3.1,3.1-3.1h447.7c1.7,0,3.1,1.4,3.1,3.1
		C1456.7,32,1455.4,33.4,1453.7,33.4"/>
	<path id="XMLID_4_" class="st1" d="M779.2,14.9H331.6c-1.7,0-3.1-1.4-3.1-3.1c0-1.7,1.4-3.1,3.1-3.1h447.7c1.7,0,3.1,1.4,3.1,3.1
		C782.3,13.5,780.9,14.9,779.2,14.9"/>
	<path id="XMLID_3_" class="st1" d="M1323.1,14.9H875.4c-1.7,0-3.1-1.4-3.1-3.1c0-1.7,1.4-3.1,3.1-3.1h447.7c1.7,0,3.1,1.4,3.1,3.1
		C1326.2,13.5,1324.8,14.9,1323.1,14.9"/>
</g>
</svg>
