<?xml version="1.0" encoding="UTF-8" standalone="no"?>
<svg
   xmlns:dc="http://purl.org/dc/elements/1.1/"
   xmlns:cc="http://creativecommons.org/ns#"
   xmlns:rdf="http://www.w3.org/1999/02/22-rdf-syntax-ns#"
   xmlns:svg="http://www.w3.org/2000/svg"
   xmlns="http://www.w3.org/2000/svg"
   xmlns:sodipodi="http://sodipodi.sourceforge.net/DTD/sodipodi-0.dtd"
   xmlns:inkscape="http://www.inkscape.org/namespaces/inkscape"
   version="1.1"
   id="svg2"
   xml:space="preserve"
   width="268.92001"
   height="65.466667"
   viewBox="0 0 268.92001 65.466667"
   sodipodi:docname="Versión principal.ai"><metadata
     id="metadata8"><rdf:RDF><cc:Work
         rdf:about=""><dc:format>image/svg+xml</dc:format><dc:type
           rdf:resource="http://purl.org/dc/dcmitype/StillImage" /></cc:Work></rdf:RDF></metadata><defs
     id="defs6"><clipPath
       clipPathUnits="userSpaceOnUse"
       id="clipPath18"><path
         d="M 0,49.1 H 201.69 V 0 H 0 Z"
         id="path16" /></clipPath></defs><sodipodi:namedview
     pagecolor="#ffffff"
     bordercolor="#666666"
     borderopacity="1"
     objecttolerance="10"
     gridtolerance="10"
     guidetolerance="10"
     inkscape:pageopacity="0"
     inkscape:pageshadow="2"
     inkscape:window-width="640"
     inkscape:window-height="480"
     id="namedview4" /><g
     id="g10"
     inkscape:groupmode="layer"
     inkscape:label="Versión principal"
     transform="matrix(1.3333333,0,0,-1.3333333,0,65.466667)"><g
       id="g12"><g
         id="g14"
         clip-path="url(#clipPath18)"><g
           id="g20"
           transform="translate(201.6855,24.549)"><path
             d="m 0,0 c 0,-0.625 -0.513,-1.138 -1.145,-1.138 h -8.408 v 2.283 h 8.408 C -0.513,1.145 0,0.632 0,0"
             style="fill:#6ba9c7;fill-opacity:1;fill-rule:nonzero;stroke:none"
             id="path22" /></g><g
           id="g24"
           transform="translate(201.6855,32.3569)"><path
             d="m 0,0 c 0,-0.632 -0.513,-1.138 -1.138,-1.138 h -8.415 v 2.283 h 8.415 C -0.513,1.145 0,0.632 0,0"
             style="fill:#95d4f0;fill-opacity:1;fill-rule:nonzero;stroke:none"
             id="path26" /></g><g
           id="g28"
           transform="translate(201.6855,20.6503)"><path
             d="m 0,0 c 0,-0.632 -0.513,-1.138 -1.145,-1.138 h -8.408 v 2.283 h 8.408 C -0.513,1.145 0,0.632 0,0"
             style="fill:#007ca4;fill-opacity:1;fill-rule:nonzero;stroke:none"
             id="path30" /></g><g
           id="g32"
           transform="translate(201.6855,28.4546)"><path
             d="m 0,0 c 0,-0.632 -0.513,-1.145 -1.138,-1.145 h -8.415 v 2.283 h 8.415 C -0.513,1.138 0,0.632 0,0"
             style="fill:#95d4f0;fill-opacity:1;fill-rule:nonzero;stroke:none"
             id="path34" /></g><g
           id="g36"
           transform="translate(201.6855,12.8459)"><path
             d="m 0,0 c 0,-0.632 -0.513,-1.138 -1.138,-1.138 h -8.415 v 2.283 h 8.415 C -0.513,1.145 0,0.632 0,0"
             style="fill:#007ca4;fill-opacity:1;fill-rule:nonzero;stroke:none"
             id="path38" /></g><g
           id="g40"
           transform="translate(201.6855,16.7516)"><path
             d="m 0,0 c 0,-0.632 -0.513,-1.145 -1.138,-1.145 h -8.415 v 2.283 h 8.415 C -0.513,1.138 0,0.625 0,0"
             style="fill:#1a91b6;fill-opacity:1;fill-rule:nonzero;stroke:none"
             id="path42" /></g><g
           id="g44"
           transform="translate(201.6855,8.9472)"><path
             d="m 0,0 c 0,-0.632 -0.513,-1.145 -1.138,-1.145 h -8.415 v 2.283 h 8.415 C -0.513,1.138 0,0.625 0,0"
             style="fill:#007ca4;fill-opacity:1;fill-rule:nonzero;stroke:none"
             id="path46" /></g><g
           id="g48"
           transform="translate(201.6855,5.0416)"><path
             d="m 0,0 c 0,-0.625 -0.513,-1.138 -1.145,-1.138 h -8.408 v 2.283 h 8.408 C -0.513,1.145 0,0.632 0,0"
             style="fill:#007ca4;fill-opacity:1;fill-rule:nonzero;stroke:none"
             id="path50" /></g><g
           id="g52"
           transform="translate(60.9679,17.8896)"><path
             d="m 0,0 v -2.283 h -41.677 c -0.632,0 -1.145,0.513 -1.145,1.145 0,0.625 0.513,1.138 1.145,1.138 z"
             style="fill:#4a9dbe;fill-opacity:1;fill-rule:nonzero;stroke:none"
             id="path54" /></g><g
           id="g56"
           transform="translate(15.2029,15.6073)"><path
             d="m 0,0 h -14.044 c -0.631,0 -1.142,0.511 -1.142,1.142 0,0.63 0.511,1.141 1.142,1.141 H 0 C 0.63,2.283 1.141,1.772 1.141,1.142 1.141,0.511 0.63,0 0,0"
             style="fill:#007ca4;fill-opacity:1;fill-rule:nonzero;stroke:none"
             id="path58" /></g><g
           id="g60"
           transform="translate(60.9679,10.0852)"><path
             d="m 0,0 v -2.283 h -17.133 c -0.632,0 -1.138,0.513 -1.138,1.145 0,0.625 0.506,1.138 1.138,1.138 z"
             style="fill:#007ca4;fill-opacity:1;fill-rule:nonzero;stroke:none"
             id="path62" /></g><g
           id="g64"
           transform="translate(60.9679,13.9909)"><path
             d="m 0,0 v -2.283 h -59.829 c -0.625,0 -1.138,0.506 -1.138,1.138 0,0.632 0.513,1.145 1.138,1.145 z"
             style="fill:#007ca4;fill-opacity:1;fill-rule:nonzero;stroke:none"
             id="path66" /></g><g
           id="g68"
           transform="translate(60.9679,6.2064)"><path
             d="m 0,0 v -2.283 h -59.829 c -0.625,0 -1.138,0.513 -1.138,1.138 0,0.632 0.513,1.145 1.138,1.145 z"
             style="fill:#007ca4;fill-opacity:1;fill-rule:nonzero;stroke:none"
             id="path70" /></g><g
           id="g72"
           transform="translate(201.6855,1.1429)"><path
             d="M 0,0 C 0,-0.632 -0.513,-1.145 -1.145,-1.145 H -81.347 V 1.138 H -1.145 C -0.513,1.138 0,0.632 0,0"
             style="fill:#007ca4;fill-opacity:1;fill-rule:nonzero;stroke:none"
             id="path74" /></g><g
           id="g76"
           transform="translate(39.0441,7.8034)"><path
             d="m 0,0 h -37.886 c -0.63,0 -1.141,0.511 -1.141,1.141 0,0.631 0.511,1.142 1.141,1.142 H 0 C 0.63,2.283 1.141,1.772 1.141,1.141 1.141,0.511 0.63,0 0,0"
             style="fill:#4a9dbe;fill-opacity:1;fill-rule:nonzero;stroke:none"
             id="path78" /></g><g
           id="g80"
           transform="translate(7.3928,31.2131)"><path
             d="m 0,0 h -6.234 c -0.631,0 -1.142,0.511 -1.142,1.141 0,0.631 0.511,1.142 1.142,1.142 H 0 C 0.63,2.283 1.141,1.772 1.141,1.141 1.141,0.511 0.63,0 0,0"
             style="fill:#6cb753;fill-opacity:1;fill-rule:nonzero;stroke:none"
             id="path82" /></g><g
           id="g84"
           transform="translate(21.6389,27.3118)"><path
             d="m 0,0 h -14.235 c -0.631,0 -1.142,0.511 -1.142,1.141 0,0.631 0.511,1.142 1.142,1.142 H 0 C 0.63,2.283 1.141,1.772 1.141,1.141 1.141,0.511 0.63,0 0,0"
             style="fill:#6cb753;fill-opacity:1;fill-rule:nonzero;stroke:none"
             id="path86" /></g><g
           id="g88"
           transform="translate(4.0856,27.3118)"><path
             d="m 0,0 h -2.944 c -0.63,0 -1.141,0.511 -1.141,1.141 0,0.631 0.511,1.142 1.141,1.142 H 0 C 0.63,2.283 1.141,1.772 1.141,1.141 1.141,0.511 0.63,0 0,0"
             style="fill:#ed7737;fill-opacity:1;fill-rule:nonzero;stroke:none"
             id="path90" /></g><g
           id="g92"
           transform="translate(100.7696,45.1803)"><path
             d="m 0,0 v -2.283 h -99.63 c -0.626,0 -1.138,0.513 -1.138,1.138 0,0.632 0.512,1.145 1.138,1.145 z"
             style="fill:#84cfef;fill-opacity:1;fill-rule:nonzero;stroke:none"
             id="path94" /></g><g
           id="g96"
           transform="translate(100.7696,49.1)"><path
             d="m 0,0 v -2.283 h -99.609 c -0.632,0 -1.145,0.513 -1.145,1.145 0,0.632 0.513,1.138 1.145,1.138 z"
             style="fill:#84cfef;fill-opacity:1;fill-rule:nonzero;stroke:none"
             id="path98" /></g><g
           id="g100"
           transform="translate(25.0984,31.2131)"><path
             d="m 0,0 h -12.539 c -0.63,0 -1.141,0.511 -1.141,1.141 0,0.631 0.511,1.142 1.141,1.142 H 0 C 0.63,2.283 1.141,1.772 1.141,1.141 1.141,0.511 0.63,0 0,0"
             style="fill:#95d4f0;fill-opacity:1;fill-rule:nonzero;stroke:none"
             id="path102" /></g><g
           id="g104"
           transform="translate(60.961,33.4983)"><path
             d="m 0,0 v -2.283 h -26.645 c -0.632,0 -1.144,0.506 -1.144,1.138 0,0.632 0.512,1.145 1.144,1.145 z"
             style="fill:#95d4f0;fill-opacity:1;fill-rule:nonzero;stroke:none"
             id="path106" /></g><g
           id="g108"
           transform="translate(60.961,29.5926)"><path
             d="m 0,0 v -2.283 h -9.315 c -0.625,0 -1.138,0.513 -1.138,1.145 0,0.632 0.513,1.138 1.138,1.138 z"
             style="fill:#bde3f6;fill-opacity:1;fill-rule:nonzero;stroke:none"
             id="path110" /></g><g
           id="g112"
           transform="translate(36.3338,27.3118)"><path
             d="m 0,0 h -11.268 c -0.63,0 -1.141,0.511 -1.141,1.141 0,0.631 0.511,1.142 1.141,1.142 H 0 C 0.63,2.283 1.141,1.772 1.141,1.141 1.141,0.511 0.63,0 0,0"
             style="fill:#bde3f6;fill-opacity:1;fill-rule:nonzero;stroke:none"
             id="path114" /></g><g
           id="g116"
           transform="translate(60.954,37.3969)"><path
             d="m 0,0 v -2.283 h -4.06 c -0.633,0 -1.145,0.513 -1.145,1.145 0,0.625 0.512,1.138 1.145,1.138 z"
             style="fill:#bde3f6;fill-opacity:1;fill-rule:nonzero;stroke:none"
             id="path118" /></g><g
           id="g120"
           transform="translate(51.626,35.1147)"><path
             d="m 0,0 h -50.484 c -0.631,0 -1.142,0.511 -1.142,1.142 0,0.63 0.511,1.141 1.142,1.141 H 0 C 0.63,2.283 1.141,1.772 1.141,1.142 1.141,0.511 0.63,0 0,0"
             style="fill:#bde3f6;fill-opacity:1;fill-rule:nonzero;stroke:none"
             id="path122" /></g><g
           id="g124"
           transform="translate(29.3427,23.4105)"><path
             d="m 0,0 h -28.184 c -0.631,0 -1.142,0.511 -1.142,1.141 0,0.631 0.511,1.142 1.142,1.142 H 0 C 0.63,2.283 1.142,1.772 1.142,1.141 1.142,0.511 0.63,0 0,0"
             style="fill:#96c24e;fill-opacity:1;fill-rule:nonzero;stroke:none"
             id="path126" /></g><g
           id="g128"
           transform="translate(38.0152,23.4105)"><path
             d="m 0,0 h -5.317 c -0.631,0 -1.142,0.511 -1.142,1.141 0,0.631 0.511,1.142 1.142,1.142 H 0 C 0.63,2.283 1.141,1.772 1.141,1.141 1.141,0.511 0.63,0 0,0"
             style="fill:#f5a22c;fill-opacity:1;fill-rule:nonzero;stroke:none"
             id="path130" /></g><g
           id="g132"
           transform="translate(60.961,25.694)"><path
             d="m 0,0 v -2.283 h -19.002 c -0.632,0 -1.145,0.513 -1.145,1.138 0,0.632 0.513,1.145 1.145,1.145 z"
             style="fill:#6ba9c7;fill-opacity:1;fill-rule:nonzero;stroke:none"
             id="path134" /></g><g
           id="g136"
           transform="translate(46.1772,19.5089)"><path
             d="m 0,0 h -18.752 c -0.631,0 -1.142,0.511 -1.142,1.142 0,0.63 0.511,1.141 1.142,1.141 H 0 C 0.63,2.283 1.141,1.772 1.141,1.142 1.141,0.511 0.63,0 0,0"
             style="fill:#cad63e;fill-opacity:1;fill-rule:nonzero;stroke:none"
             id="path138" /></g><g
           id="g140"
           transform="translate(24.1641,19.5089)"><path
             d="m 0,0 h -13.293 c -0.631,0 -1.142,0.511 -1.142,1.142 0,0.63 0.511,1.141 1.142,1.141 H 0 C 0.63,2.283 1.141,1.772 1.141,1.142 1.141,0.511 0.63,0 0,0"
             style="fill:#fdc921;fill-opacity:1;fill-rule:nonzero;stroke:none"
             id="path142" /></g><g
           id="g144"
           transform="translate(7.5526,19.5089)"><path
             d="m 0,0 h -6.394 c -0.631,0 -1.142,0.511 -1.142,1.142 0,0.63 0.511,1.141 1.142,1.141 H 0 C 0.63,2.283 1.141,1.772 1.141,1.142 1.141,0.511 0.63,0 0,0"
             style="fill:#cad63e;fill-opacity:1;fill-rule:nonzero;stroke:none"
             id="path146" /></g><g
           id="g148"
           transform="translate(60.9679,19.5123)"><path
             d="m 0,0 h -10.86 c -0.632,0 -1.145,0.506 -1.145,1.138 0,0.632 0.513,1.145 1.145,1.145 h 10.853 z"
             style="fill:#007ca4;fill-opacity:1;fill-rule:nonzero;stroke:none"
             id="path150" /></g><g
           id="g152"
           transform="translate(60.954,41.2957)"><path
             d="m 0,0 v -2.283 h -59.794 c -0.632,0 -1.145,0.513 -1.145,1.145 0,0.632 0.513,1.138 1.145,1.138 z"
             style="fill:#84cfef;fill-opacity:1;fill-rule:nonzero;stroke:none"
             id="path154" /></g><g
           id="g156"
           transform="translate(192.1291,3.9064)"><path
             d="M 0,0 V 29.595 H -4.563 V 2.283 H -71.781 V -0.003 H -0.008 V 0 Z"
             style="fill:#005570;fill-opacity:1;fill-rule:nonzero;stroke:none"
             id="path158" /></g><path
           d="m 60.946,3.923 h 7.009 v 37.375 h -7.009 z"
           style="fill:#005570;fill-opacity:1;fill-rule:nonzero;stroke:none"
           id="path160" /><g
           id="g162"
           transform="translate(81.1125,13.2111)"><path
             d="M 0,0 C 0.53,0 1.003,0.077 1.419,0.232 1.842,0.387 2.223,0.613 2.562,0.911 L 2.044,1.571 C 1.687,1.309 1.366,1.128 1.08,1.027 0.765,0.908 0.414,0.848 0.027,0.848 c -0.304,0 -0.578,0.04 -0.822,0.121 -0.244,0.08 -0.446,0.195 -0.607,0.343 -0.345,0.316 -0.517,0.801 -0.517,1.456 V 3.5 c 0,0.654 0.172,1.139 0.517,1.455 0.161,0.149 0.363,0.263 0.607,0.344 0.244,0.08 0.518,0.12 0.822,0.12 0.375,0 0.726,-0.062 1.053,-0.187 C 1.39,5.118 1.711,4.937 2.044,4.687 l 0.518,0.67 C 2.229,5.654 1.848,5.88 1.419,6.035 1.003,6.19 0.53,6.267 0,6.267 -0.905,6.267 -1.613,6.038 -2.125,5.58 -2.649,5.104 -2.91,4.407 -2.91,3.491 V 2.777 c 0,-0.917 0.261,-1.613 0.785,-2.09 C -1.613,0.229 -0.905,0 0,0 M 3.857,0.071 H 4.848 V 6.195 H 3.857 Z M 8.963,0 c 0.839,0 1.467,0.181 1.884,0.545 0.232,0.202 0.408,0.45 0.527,0.745 0.119,0.295 0.178,0.659 0.178,1.094 V 6.196 H 10.57 V 2.419 C 10.57,2.122 10.536,1.878 10.468,1.687 10.399,1.497 10.287,1.333 10.133,1.196 9.883,0.964 9.493,0.848 8.963,0.848 8.433,0.848 8.044,0.964 7.794,1.196 7.639,1.333 7.527,1.497 7.459,1.687 7.39,1.878 7.356,2.122 7.356,2.419 V 6.196 H 6.365 V 2.384 C 6.365,1.931 6.423,1.558 6.539,1.263 6.655,0.969 6.835,0.72 7.079,0.518 7.496,0.173 8.124,0 8.963,0 m 4.08,0.071 h 2.393 c 0.988,0 1.732,0.212 2.232,0.634 0.529,0.429 0.794,1.066 0.794,1.911 v 1.062 c 0,0.863 -0.256,1.5 -0.768,1.911 -0.512,0.404 -1.264,0.607 -2.258,0.607 h -2.393 z m 0.991,0.777 V 5.41 h 1.384 c 0.369,0 0.678,-0.03 0.928,-0.089 0.25,-0.06 0.461,-0.164 0.634,-0.313 0.333,-0.285 0.5,-0.735 0.5,-1.348 V 2.634 C 17.48,2.044 17.307,1.595 16.962,1.286 16.784,1.131 16.569,1.019 16.32,0.951 16.07,0.882 15.766,0.848 15.409,0.848 Z m 9.883,-0.777 h 1.009 C 24.67,0.803 24.03,2.616 23.006,5.508 l -0.241,0.688 h -1.41 C 20.641,4.232 19.917,2.19 19.185,0.071 h 1 c 0.137,0.417 0.298,0.896 0.482,1.438 h 2.768 z m -2.982,2.214 c 0.131,0.411 0.256,0.774 0.375,1.09 l 0.696,1.999 h 0.081 L 22.185,5.089 C 22.477,4.261 22.676,3.69 22.783,3.375 l 0.384,-1.09 z m 5.196,-2.214 h 2.393 c 0.987,0 1.731,0.212 2.231,0.634 0.53,0.429 0.795,1.066 0.795,1.911 v 1.062 c 0,0.863 -0.256,1.5 -0.768,1.911 -0.512,0.404 -1.265,0.607 -2.258,0.607 h -2.393 z m 0.991,0.777 V 5.41 h 1.384 c 0.369,0 0.678,-0.03 0.928,-0.089 0.25,-0.06 0.461,-0.164 0.634,-0.313 0.333,-0.285 0.5,-0.735 0.5,-1.348 V 2.634 C 30.568,2.044 30.395,1.595 30.05,1.286 29.872,1.131 29.657,1.019 29.407,0.951 29.157,0.882 28.854,0.848 28.497,0.848 Z"
             style="fill:#005570;fill-opacity:1;fill-rule:nonzero;stroke:none"
             id="path164" /></g><g
           id="g166"
           transform="translate(82.4493,22.5596)"><path
             d="M 0,0 C 1.528,0 2.683,0.291 3.468,0.873 4.253,1.455 4.645,2.302 4.645,3.414 V 3.57 c 0,0.675 -0.13,1.226 -0.39,1.652 C 3.995,5.648 3.603,5.98 3.078,6.219 2.554,6.458 1.87,6.645 1.029,6.781 l -0.873,0.14 c -0.624,0.104 -1.06,0.218 -1.309,0.343 -0.25,0.124 -0.375,0.327 -0.375,0.608 v 0.015 c 0,0.26 0.159,0.462 0.476,0.608 0.317,0.146 0.75,0.218 1.301,0.218 C 0.8,8.713 1.33,8.656 1.839,8.542 2.432,8.407 2.941,8.23 3.367,8.012 l 0.982,2.167 c -0.603,0.28 -1.211,0.488 -1.824,0.623 -0.696,0.156 -1.429,0.234 -2.198,0.234 -1.434,0 -2.559,-0.283 -3.374,-0.85 C -3.863,9.62 -4.271,8.812 -4.271,7.763 V 7.669 c 0,-0.966 0.283,-1.689 0.85,-2.167 0.566,-0.478 1.395,-0.805 2.486,-0.982 L -0.171,4.396 C 0.358,4.312 0.761,4.234 1.037,4.162 1.312,4.089 1.522,3.988 1.668,3.858 1.813,3.728 1.886,3.549 1.886,3.32 V 3.289 C 1.886,2.967 1.722,2.725 1.395,2.564 1.068,2.403 0.613,2.323 0.031,2.323 -0.53,2.323 -1.117,2.39 -1.73,2.525 -2.364,2.66 -2.998,2.873 -3.632,3.164 L -4.427,0.935 C -3.824,0.613 -3.086,0.369 -2.213,0.203 -1.496,0.068 -0.759,0 0,0 m 13.358,0.125 h 2.915 C 15.245,3.45 14.107,7.046 12.86,10.911 H 8.791 C 7.513,6.983 6.38,3.388 5.393,0.125 h 2.884 l 0.546,2.026 h 3.959 z m -3.912,4.224 0.203,0.717 0.483,1.652 c 0.114,0.384 0.215,0.733 0.304,1.045 0.088,0.311 0.169,0.586 0.241,0.826 h 0.203 l 0.359,-1.185 c 0.218,-0.686 0.452,-1.46 0.701,-2.323 l 0.218,-0.732 z m 8.355,-4.224 h 2.712 v 4.13 c 0,1.039 -0.005,1.751 -0.016,2.136 h 0.047 c 0.353,-0.509 0.842,-1.159 1.465,-1.949 l 3.399,-4.317 h 2.478 v 10.786 h -2.712 v -4.13 c 0,-1.019 0.005,-1.731 0.015,-2.136 h -0.046 c -0.354,0.509 -0.842,1.159 -1.466,1.948 l -3.398,4.318 h -2.478 z m 14.621,0 h 2.852 v 8.432 h 2.962 v 2.354 H 29.46 V 8.557 h 2.962 z m 13.311,0 h 2.915 C 47.619,3.45 46.481,7.046 45.234,10.911 H 41.166 C 39.888,6.983 38.755,3.388 37.768,0.125 h 2.884 l 0.545,2.026 h 3.959 z m -3.912,4.224 0.202,0.717 0.484,1.652 c 0.114,0.384 0.215,0.733 0.304,1.045 0.088,0.311 0.168,0.586 0.241,0.826 h 0.203 l 0.358,-1.185 c 0.218,-0.686 0.452,-1.46 0.702,-2.323 l 0.218,-0.732 z m 8.355,-4.224 h 2.712 v 4.13 c 0,1.039 -0.006,1.751 -0.016,2.136 h 0.047 c 0.353,-0.509 0.842,-1.159 1.465,-1.949 l 3.398,-4.317 h 2.479 v 10.786 h -2.713 v -4.13 c 0,-1.019 0.005,-1.731 0.016,-2.136 h -0.047 c -0.353,0.509 -0.841,1.159 -1.465,1.948 l -3.398,4.318 h -2.478 z m 12.142,0 h 4.77 c 1.808,0 3.169,0.421 4.084,1.262 0.924,0.842 1.387,2.032 1.387,3.57 v 1.247 c 0,1.569 -0.468,2.748 -1.403,3.538 -0.935,0.779 -2.281,1.169 -4.037,1.169 h -4.801 z m 2.852,2.182 v 6.422 h 1.902 c 0.468,0 0.862,-0.052 1.185,-0.156 0.322,-0.104 0.592,-0.265 0.81,-0.483 0.416,-0.416 0.624,-1.05 0.624,-1.902 V 4.972 c 0,-0.841 -0.213,-1.491 -0.639,-1.948 -0.447,-0.478 -1.107,-0.717 -1.98,-0.717 z m 9.197,-2.182 h 7.903 v 2.353 h -5.051 v 1.886 h 4.864 v 2.354 h -4.864 v 1.839 h 5.051 v 2.354 h -7.903 z m 19.593,0 c -0.831,1.537 -1.58,2.883 -2.244,4.037 0.571,0.301 1.018,0.714 1.34,1.239 0.322,0.525 0.483,1.146 0.483,1.863 v 0.187 c 0,1.174 -0.343,2.044 -1.028,2.611 -0.686,0.566 -1.663,0.849 -2.931,0.849 H 84.187 V 0.125 h 2.852 v 3.522 h 1.98 C 89.57,2.629 90.172,1.455 90.827,0.125 Z m -6.921,8.604 h 2.167 c 0.977,0 1.465,-0.468 1.465,-1.403 V 7.201 c 0,-0.457 -0.13,-0.8 -0.389,-1.028 C 90.022,5.944 89.658,5.83 89.19,5.83 h -2.151 z"
             style="fill:#005570;fill-opacity:1;fill-rule:nonzero;stroke:none"
             id="path168" /></g></g></g></g></svg>
