<?xml version="1.0" encoding="utf-8"?>
<!-- Generator: Adobe Illustrator 19.0.0, SVG Export Plug-In . SVG Version: 6.00 Build 0)  -->
<svg version="1.1" id="Capa_1" xmlns="http://www.w3.org/2000/svg" xmlns:xlink="http://www.w3.org/1999/xlink" x="0px" y="0px"
	 viewBox="0 0 145.3 49.1" style="enable-background:new 0 0 145.3 49.1;" xml:space="preserve">
<style type="text/css">
	.st0{fill:#6BA9C7;}
	.st1{fill:#95D4F0;}
	.st2{fill:#007CA4;}
	.st3{fill:#1A91B6;}
	.st4{fill:#4A9DBE;}
	.st5{fill:#84CFEF;}
	.st6{fill:#BDE3F6;}
	.st7{fill:#6CB753;}
	.st8{fill:#ED7737;}
	.st9{fill:#FDC921;}
	.st10{fill:#CAD63E;}
	.st11{fill:#96C24E;}
	.st12{fill:#00556F;}
</style>
<path id="XMLID_50_" class="st0" d="M145.3,24.6c0,0.6-0.5,1.1-1.1,1.1h-3.7v-2.3h3.7C144.8,23.4,145.3,23.9,145.3,24.6"/>
<path id="XMLID_49_" class="st1" d="M145.3,16.8c0,0.6-0.5,1.1-1.1,1.1h-3.7v-2.3h3.7C144.8,15.6,145.3,16.2,145.3,16.8"/>
<path id="XMLID_48_" class="st2" d="M145.3,28.5c0,0.6-0.5,1.1-1.1,1.1h-3.7v-2.3h3.7C144.8,27.3,145.3,27.8,145.3,28.5"/>
<path id="XMLID_47_" class="st1" d="M145.3,20.7c0,0.6-0.5,1.1-1.1,1.1h-3.7v-2.3h3.7C144.8,19.5,145.3,20,145.3,20.7"/>
<path id="XMLID_46_" class="st3" d="M145.3,32.4c0,0.6-0.5,1.1-1.1,1.1h-3.7v-2.3h3.7C144.8,31.2,145.3,31.7,145.3,32.4"/>
<path id="XMLID_45_" class="st2" d="M145.3,36.3c0,0.6-0.5,1.1-1.1,1.1h-3.7v-2.3h3.7C144.8,35.1,145.3,35.6,145.3,36.3"/>
<path id="XMLID_44_" class="st2" d="M145.3,40.2c0,0.6-0.5,1.1-1.1,1.1h-3.7V39h3.7C144.8,39,145.3,39.6,145.3,40.2"/>
<path id="XMLID_43_" class="st2" d="M9.3,37.4H1.2c-0.6,0-1.1-0.5-1.1-1.1c0-0.6,0.5-1.1,1.1-1.1h8.1L9.3,37.4z"/>
<path id="XMLID_42_" class="st2" d="M9.3,33.5H1.2C0.5,33.5,0,33,0,32.4c0-0.6,0.5-1.1,1.1-1.1h8.1L9.3,33.5z"/>
<path id="XMLID_41_" class="st2" d="M9.3,42.9v2.3H1.2c-0.6,0-1.1-0.5-1.1-1.1c0-0.6,0.5-1.1,1.1-1.1H9.3z"/>
<path id="XMLID_40_" class="st4" d="M9.3,39v2.3H1.2c-0.6,0-1.1-0.5-1.1-1.1C0,39.5,0.5,39,1.2,39H9.3z"/>
<path id="XMLID_39_" class="st2" d="M145.3,44.1c0,0.6-0.5,1.1-1.1,1.1h-3.7v-2.3h3.7C144.8,42.9,145.3,43.4,145.3,44.1"/>
<path id="XMLID_38_" class="st5" d="M1.2,7.8h8.1v2.3H1.2C0.5,10.1,0,9.6,0,9C0,8.3,0.5,7.8,1.2,7.8"/>
<path id="XMLID_37_" class="st5" d="M49.1,6.2V3.9h-3.7H31.2h-30C0.5,3.9,0,4.4,0,5.1c0,0.6,0.5,1.1,1.1,1.1h30h14.2H49.1z"/>
<path id="XMLID_36_" class="st5" d="M49.1,2.3V0h-3.7H31.2h-30C0.5,0,0,0.5,0,1.1c0,0.6,0.5,1.1,1.1,1.1h30h14.2H49.1z"/>
<path id="XMLID_35_" class="st6" d="M9.3,11.7V14H1.1C0.5,14,0,13.5,0,12.9c0-0.6,0.5-1.1,1.1-1.1H9.3z"/>
<path id="XMLID_34_" class="st2" d="M145.3,48c0-0.6-0.5-1.1-1.1-1.1H68.7v2.3h75.5C144.8,49.1,145.3,48.6,145.3,48"/>
<path id="XMLID_33_" class="st7" d="M9.3,19.5v2.3H5.4c-0.6,0-1.1-0.5-1.1-1.1c0-0.6,0.5-1.1,1.1-1.1H9.3z"/>
<path id="XMLID_32_" class="st8" d="M2.3,21.8H1.2c-0.6,0-1.1-0.5-1.1-1.1c0-0.6,0.5-1.1,1.1-1.1h1.1c0.6,0,1.1,0.5,1.1,1.1
	C3.4,21.3,2.9,21.8,2.3,21.8"/>
<path id="XMLID_31_" class="st7" d="M9.3,15.6v2.3H1.2c-0.6,0-1.1-0.5-1.1-1.1c0-0.6,0.5-1.1,1.1-1.1H9.3z"/>
<path id="XMLID_30_" class="st9" d="M9.3,27.3v2.3H6.9c-0.6,0-1.1-0.5-1.1-1.1c0-0.6,0.5-1.1,1.1-1.1H9.3z"/>
<path id="XMLID_29_" class="st10" d="M3.4,29.6H1.1c-0.6,0-1.1-0.5-1.1-1.1c0-0.6,0.5-1.1,1.1-1.1h2.3c0.6,0,1.1,0.5,1.1,1.1
	C4.6,29.1,4.1,29.6,3.4,29.6"/>
<path id="XMLID_28_" class="st11" d="M9.3,23.4v2.3H1.2c-0.6,0-1.1-0.5-1.1-1.1s0.5-1.1,1.1-1.1H9.3z"/>
<polygon id="XMLID_27_" class="st12" points="140.4,45.2 140.4,15.6 135.9,15.6 135.9,43 68.7,43 68.7,45.2 140.4,45.2 140.4,45.2 
	"/>
<rect id="XMLID_26_" x="9.3" y="7.8" class="st12" width="7" height="37.4"/>
<path id="XMLID_16_" class="st12" d="M56.6,35.1v-4.6h1.4c0.4,0,0.7,0,0.9,0.1c0.3,0.1,0.5,0.2,0.6,0.3c0.3,0.3,0.5,0.7,0.5,1.3v1
	c0,0.6-0.2,1-0.5,1.3c-0.2,0.2-0.4,0.3-0.6,0.3c-0.3,0.1-0.6,0.1-0.9,0.1H56.6z M55.6,35.9H58c1,0,1.7-0.2,2.2-0.6
	c0.5-0.4,0.8-1.1,0.8-1.9v-1.1c0-0.9-0.3-1.5-0.8-1.9c-0.5-0.4-1.3-0.6-2.3-0.6h-2.4V35.9z M50.4,33.6c0.1-0.4,0.3-0.8,0.4-1.1
	l0.7-2h0.1l0.1,0.3c0.3,0.8,0.5,1.4,0.6,1.7l0.4,1.1H50.4z M53.3,35.9h1c-0.3-0.7-0.9-2.5-1.9-5.4l-0.2-0.7h-1.4
	c-0.7,2-1.4,4-2.2,6.1h1c0.1-0.4,0.3-0.9,0.5-1.4h2.8L53.3,35.9z M43.5,35.1v-4.6h1.4c0.4,0,0.7,0,0.9,0.1c0.3,0.1,0.5,0.2,0.6,0.3
	c0.3,0.3,0.5,0.7,0.5,1.3v1c0,0.6-0.2,1-0.5,1.3c-0.2,0.2-0.4,0.3-0.6,0.3c-0.2,0.1-0.6,0.1-0.9,0.1H43.5z M42.5,35.9h2.4
	c1,0,1.7-0.2,2.2-0.6c0.5-0.4,0.8-1.1,0.8-1.9v-1.1c0-0.9-0.3-1.5-0.8-1.9c-0.5-0.4-1.3-0.6-2.3-0.6h-2.4V35.9z M38.4,35.9
	c0.8,0,1.5-0.2,1.9-0.5c0.2-0.2,0.4-0.4,0.5-0.7c0.1-0.3,0.2-0.7,0.2-1.1v-3.8h-1v3.8c0,0.3,0,0.5-0.1,0.7c-0.1,0.2-0.2,0.4-0.3,0.5
	c-0.3,0.2-0.6,0.3-1.2,0.3s-0.9-0.1-1.2-0.3c-0.2-0.1-0.3-0.3-0.3-0.5c-0.1-0.2-0.1-0.4-0.1-0.7v-3.8h-1v3.8c0,0.5,0.1,0.8,0.2,1.1
	c0.1,0.3,0.3,0.5,0.5,0.7C36.9,35.8,37.6,35.9,38.4,35.9 M33.3,35.9h1v-6.1h-1V35.9z M29.4,35.9c0.5,0,1-0.1,1.4-0.2
	c0.4-0.2,0.8-0.4,1.1-0.7l-0.5-0.7c-0.4,0.3-0.7,0.4-1,0.5c-0.3,0.1-0.7,0.2-1.1,0.2c-0.3,0-0.6,0-0.8-0.1c-0.2-0.1-0.4-0.2-0.6-0.3
	c-0.3-0.3-0.5-0.8-0.5-1.5v-0.7c0-0.7,0.2-1.1,0.5-1.5c0.2-0.1,0.4-0.3,0.6-0.3c0.2-0.1,0.5-0.1,0.8-0.1c0.4,0,0.7,0.1,1.1,0.2
	c0.3,0.1,0.6,0.3,1,0.5l0.5-0.7c-0.3-0.3-0.7-0.5-1.1-0.7c-0.4-0.2-0.9-0.2-1.4-0.2c-0.9,0-1.6,0.2-2.1,0.7
	c-0.5,0.5-0.8,1.2-0.8,2.1v0.7c0,0.9,0.3,1.6,0.8,2.1C27.8,35.7,28.5,35.9,29.4,35.9"/>
<path id="XMLID_2_" class="st12" d="M117.8,17.9h2.2c1,0,1.5,0.5,1.5,1.4v0.1c0,0.5-0.1,0.8-0.4,1c-0.3,0.2-0.6,0.3-1.1,0.3h-2.2
	V17.9z M124.7,26.5c-0.8-1.5-1.6-2.9-2.2-4c0.6-0.3,1-0.7,1.3-1.2c0.3-0.5,0.5-1.1,0.5-1.9v-0.2c0-1.2-0.3-2-1-2.6
	c-0.7-0.6-1.7-0.8-2.9-0.8H115v10.8h2.9v-3.5h2c0.6,1,1.2,2.2,1.8,3.5H124.7z M105.1,26.5h7.9v-2.4H108v-1.9h4.9v-2.4H108V18h5.1
	v-2.4h-7.9V26.5z M95.9,24.3v-6.4h1.9c0.5,0,0.9,0.1,1.2,0.2c0.3,0.1,0.6,0.3,0.8,0.5c0.4,0.4,0.6,1.1,0.6,1.9v1.2
	c0,0.8-0.2,1.5-0.6,1.9c-0.4,0.5-1.1,0.7-2,0.7H95.9z M93.1,26.5h4.8c1.8,0,3.2-0.4,4.1-1.3c0.9-0.8,1.4-2,1.4-3.6v-1.2
	c0-1.6-0.5-2.7-1.4-3.5c-0.9-0.8-2.3-1.2-4-1.2h-4.8V26.5z M80.9,26.5h2.7v-4.1c0-1,0-1.8,0-2.1h0c0.4,0.5,0.8,1.2,1.5,1.9l3.4,4.3
	H91V15.7h-2.7v4.1c0,1,0,1.7,0,2.1h0c-0.4-0.5-0.8-1.2-1.5-1.9l-3.4-4.3h-2.5V26.5z M72.6,22.2l0.2-0.7l0.5-1.7
	c0.1-0.4,0.2-0.7,0.3-1c0.1-0.3,0.2-0.6,0.2-0.8H74l0.4,1.2c0.2,0.7,0.5,1.5,0.7,2.3l0.2,0.7H72.6z M76.5,26.5h2.9
	c-1-3.3-2.2-6.9-3.4-10.8h-4.1c-1.3,3.9-2.4,7.5-3.4,10.8h2.9l0.5-2h4L76.5,26.5z M63.2,26.5H66V18h3v-2.4h-8.8V18h3V26.5z
	 M48.6,26.5h2.7v-4.1c0-1,0-1.8,0-2.1h0c0.4,0.5,0.8,1.2,1.5,1.9l3.4,4.3h2.5V15.7h-2.7v4.1c0,1,0,1.7,0,2.1h0
	c-0.4-0.5-0.8-1.2-1.5-1.9L51,15.7h-2.5V26.5z M40.2,22.2l0.2-0.7l0.5-1.7c0.1-0.4,0.2-0.7,0.3-1c0.1-0.3,0.2-0.6,0.2-0.8h0.2
	l0.4,1.2c0.2,0.7,0.5,1.5,0.7,2.3l0.2,0.7H40.2z M44.1,26.5H47c-1-3.3-2.2-6.9-3.4-10.8h-4.1c-1.3,3.9-2.4,7.5-3.4,10.8H39l0.5-2h4
	L44.1,26.5z M30.8,26.6c1.5,0,2.7-0.3,3.5-0.9s1.2-1.4,1.2-2.5V23c0-0.7-0.1-1.2-0.4-1.7c-0.3-0.4-0.7-0.8-1.2-1
	c-0.5-0.2-1.2-0.4-2-0.6l-0.9-0.1c-0.6-0.1-1.1-0.2-1.3-0.3c-0.3-0.1-0.4-0.3-0.4-0.6v0c0-0.3,0.2-0.5,0.5-0.6
	c0.3-0.1,0.8-0.2,1.3-0.2s1.1,0.1,1.6,0.2c0.6,0.1,1.1,0.3,1.5,0.5l1-2.2c-0.6-0.3-1.2-0.5-1.8-0.6c-0.7-0.2-1.4-0.2-2.2-0.2
	c-1.4,0-2.6,0.3-3.4,0.9c-0.8,0.6-1.2,1.4-1.2,2.4v0.1c0,1,0.3,1.7,0.9,2.2c0.6,0.5,1.4,0.8,2.5,1l0.8,0.1c0.5,0.1,0.9,0.2,1.2,0.2
	c0.3,0.1,0.5,0.2,0.6,0.3c0.1,0.1,0.2,0.3,0.2,0.5v0c0,0.3-0.2,0.6-0.5,0.7s-0.8,0.2-1.4,0.2c-0.6,0-1.1-0.1-1.8-0.2
	c-0.6-0.1-1.3-0.3-1.9-0.6l-0.8,2.2c0.6,0.3,1.3,0.6,2.2,0.7C29.3,26.5,30,26.6,30.8,26.6"/>
</svg>
