<?xml version="1.0" encoding="utf-8"?>
<!-- Generator: Adobe Illustrator 19.0.0, SVG Export Plug-In . SVG Version: 6.00 Build 0)  -->
<svg version="1.1" id="Capa_1" xmlns="http://www.w3.org/2000/svg" xmlns:xlink="http://www.w3.org/1999/xlink" x="0px" y="0px"
	 viewBox="0 0 160 55" style="enable-background:new 0 0 160 55;" xml:space="preserve">
<style type="text/css">
	.st0{clip-path:url(#XMLID_2_);fill:#E1AF46;}
	.st1{clip-path:url(#XMLID_2_);fill:#91C061;}
	.st2{clip-path:url(#XMLID_2_);fill:#EED346;}
</style>
<g id="XMLID_7_">
	<defs>
		<rect id="XMLID_8_" x="-7" y="-0.6" width="167" height="55.6"/>
	</defs>
	<clipPath id="XMLID_2_">
		<use xlink:href="#XMLID_8_"  style="overflow:visible;"/>
	</clipPath>
	<path id="XMLID_11_" class="st0" d="M883.2,3.9c0-2.2-1.8-3.9-4-3.9H692.3h-393H112.4c-2.2,0-4,1.8-4,3.9c0,2.2,1.8,3.9,4,3.9
		h186.9h393h186.9C881.4,7.8,883.2,6.1,883.2,3.9"/>
	<path id="XMLID_10_" class="st1" d="M639.3,55H59.4c-2.2,0-4-1.8-4-3.9c0-2.2,1.8-3.9,4-3.9h579.9c2.2,0,4,1.8,4,3.9
		C643.3,53.3,641.5,55,639.3,55"/>
	<path id="XMLID_9_" class="st2" d="M606.9,31.4H16.7c-2.2,0-4-1.8-4-3.9c0-2.2,1.8-3.9,4-3.9h590.2c2.2,0,4,1.8,4,3.9
		C610.8,29.7,609.1,31.4,606.9,31.4"/>
</g>
</svg>
