<?xml version="1.0" encoding="utf-8"?>
<!-- Generator: Adobe Illustrator 25.0.0, SVG Export Plug-In . SVG Version: 6.00 Build 0)  -->
<svg version="1.1" id="Capa_1" xmlns="http://www.w3.org/2000/svg" xmlns:xlink="http://www.w3.org/1999/xlink" x="0px" y="0px"
	 viewBox="0 0 200 200" style="enable-background:new 0 0 200 200;" xml:space="preserve">
<style type="text/css">
	.st0{fill:none;stroke:#ffffff;stroke-width:6;stroke-linecap:round;stroke-linejoin:round;stroke-miterlimit:10;}
	.st1{fill:none;stroke:#ffffff;stroke-width:11;stroke-linecap:round;stroke-linejoin:round;stroke-miterlimit:10;}
</style>
<g>
	<g>
		<circle class="st0" cx="55" cy="78.2" r="4.9"/>
		<circle class="st0" cx="84.4" cy="78.2" r="4.9"/>
		<circle class="st0" cx="113.9" cy="78.2" r="4.9"/>
	</g>
	<path class="st1" d="M133.4,40.5H34.8c-8.8,0-15.9,7.1-15.9,15.9v45.7c0,8.8,7.1,15.9,15.9,15.9h20.1v23.3l35-23.3H134
		c8.8,0,15.9-7.1,15.9-15.9V56.4C149.6,48,142.1,40.5,133.4,40.5z"/>
	<path class="st0" d="M79.5,123.6v5.5c0,6.8,5.5,12.3,12.3,12.3H126l27.2,18.1v-18.1h15.6c6.8,0,12.3-5.5,12.3-12.3V93.6
		c0-6.8-5.5-12.3-12.3-12.3h-17.4"/>
</g>
</svg>
