<?xml version="1.0" encoding="utf-8"?>
<!-- Generator: Adobe Illustrator 25.0.0, SVG Export Plug-In . SVG Version: 6.00 Build 0)  -->
<svg version="1.1" id="Capa_1" xmlns="http://www.w3.org/2000/svg" xmlns:xlink="http://www.w3.org/1999/xlink" x="0px" y="0px"
	 viewBox="0 0 200 200" style="enable-background:new 0 0 200 200;" xml:space="preserve">
<style type="text/css">
	.st0{fill:none;stroke:#ffffff;stroke-width:6;stroke-linecap:round;stroke-linejoin:round;stroke-miterlimit:10;}
	.st1{fill:none;stroke:#ffffff;stroke-width:11;stroke-linecap:round;stroke-miterlimit:10;}
</style>
<g>
	<g>
		<line class="st0" x1="42.7" y1="65.9" x2="19.4" y2="84.1"/>
		<polyline class="st0" points="126.2,41.7 100.1,21.2 73.8,41.7 		"/>
		<line class="st0" x1="180.6" y1="84.1" x2="157.2" y2="65.8"/>
		<path class="st0" d="M180.6,144.1V84.3l-72.1,51.5c-2.6,1.8-5.5,2.7-8.4,2.7c-3,0-6-0.9-8.4-2.8L19.5,84.1v60
			c0,11.3,9.3,20.7,20.7,20.7H160C171.2,164.8,180.6,155.4,180.6,144.1"/>
	</g>
	<polyline class="st0" points="157.2,98.9 157.2,41.7 42.7,41.7 42.7,98.9 	"/>
	<g>
		<path class="st1" d="M64.4,80.2l5.7,7.9c0.4,0.4,0.9,0.6,1.3,0.6c0.5,0,0.9-0.2,1.3-0.6l18.9-18.2"/>
		<g>
			<line class="st1" x1="113.6" y1="69.3" x2="133.3" y2="89.1"/>
			<line class="st1" x1="133.3" y1="69.3" x2="113.6" y2="89.1"/>
		</g>
	</g>
	<line class="st0" x1="19.4" y1="84.1" x2="42.7" y2="84.1"/>
	<line class="st0" x1="180.6" y1="84.1" x2="158.8" y2="84.1"/>
</g>
</svg>
