<?xml version="1.0" encoding="utf-8"?>
<!-- Generator: Adobe Illustrator 25.0.0, SVG Export Plug-In . SVG Version: 6.00 Build 0)  -->
<svg version="1.1" id="Capa_1" xmlns="http://www.w3.org/2000/svg" xmlns:xlink="http://www.w3.org/1999/xlink" x="0px" y="0px"
	 viewBox="0 0 200 200" style="enable-background:new 0 0 200 200;" xml:space="preserve">
<style type="text/css">
	.st0{fill:none;stroke:#ffffff;stroke-width:11;stroke-linecap:round;stroke-linejoin:round;stroke-miterlimit:10;}
	.st1{fill:none;stroke:#ffffff;stroke-width:6;stroke-linecap:round;stroke-linejoin:round;stroke-miterlimit:10;}
</style>
<g>
	<path class="st0" d="M80.6,138.6h38.9c0-0.1,0-0.2,0-0.2c0.3-12.7,6.5-22.1,12-30.5l0.1-0.2c6.5-10,12.7-19.4,12.7-36.6
		c0-24.2-19.9-43.8-44.4-43.8S55.5,47,55.5,71.1c0,17.1,6.2,26.5,12.7,36.5l0.1,0.2c5.5,8.4,11.7,17.9,12.1,30.6
		C80.6,138.5,80.6,138.6,80.6,138.6z"/>
	<line class="st0" x1="78.1" y1="156.1" x2="121.9" y2="156.1"/>
	<line class="st0" x1="83.1" y1="172.7" x2="116.9" y2="172.7"/>
</g>
<polyline class="st1" points="181.1,115.1 168.4,115.1 168.4,61.5 119.2,61.5 119.2,96.3 99.1,96.3 99.1,75.3 74.3,75.3 74.3,50.8 
	40.7,50.8 40.7,115.1 18.9,115.1 "/>
</svg>
